<svg width="92" height="95" viewBox="0 0 92 95" fill="none" xmlns="http://www.w3.org/2000/svg">
<g id="github 1">
<path id="Vector" d="M30.7718 73.7363C30.7718 74.1074 30.3452 74.4043 29.8073 74.4043C29.1952 74.46 28.7685 74.1631 28.7685 73.7363C28.7685 73.3652 29.1952 73.0684 29.7331 73.0684C30.2895 73.0127 30.7718 73.3096 30.7718 73.7363ZM25.0032 72.9014C24.8734 73.2725 25.2444 73.6992 25.8008 73.8105C26.2831 73.9961 26.8395 73.8105 26.9508 73.4395C27.0621 73.0684 26.7097 72.6416 26.1532 72.4746C25.671 72.3447 25.1331 72.5303 25.0032 72.9014ZM33.2016 72.5859C32.6637 72.7158 32.2927 73.0684 32.3484 73.4951C32.404 73.8662 32.8863 74.1074 33.4427 73.9775C33.9806 73.8477 34.3516 73.4951 34.296 73.124C34.2403 72.7715 33.7395 72.5303 33.2016 72.5859ZM45.4065 1.48438C19.6798 1.48438 0 21.0225 0 46.7578C0 67.335 12.9468 84.9434 31.4395 91.1406C33.8137 91.5674 34.6484 90.1016 34.6484 88.8955C34.6484 87.7451 34.5927 81.3994 34.5927 77.5029C34.5927 77.5029 21.6089 80.2861 18.8823 71.9736C18.8823 71.9736 16.7677 66.5742 13.7258 65.1826C13.7258 65.1826 9.47823 62.2695 14.0226 62.3252C14.0226 62.3252 18.6411 62.6963 21.1823 67.1123C25.2444 74.2744 32.0516 72.2148 34.704 70.9902C35.1306 68.0215 36.3363 65.9619 37.6718 64.7373C27.3032 63.5869 16.8419 62.084 16.8419 44.2344C16.8419 39.1318 18.2516 36.5713 21.2194 33.3057C20.7371 32.0996 19.1605 27.127 21.7016 20.707C25.5782 19.501 34.5 25.7168 34.5 25.7168C38.2097 24.6777 42.1976 24.1397 46.1484 24.1397C50.0992 24.1397 54.0871 24.6777 57.7968 25.7168C57.7968 25.7168 66.7186 19.4824 70.5952 20.707C73.1363 27.1455 71.5597 32.0996 71.0774 33.3057C74.0452 36.5898 75.8629 39.1504 75.8629 44.2344C75.8629 62.1396 64.9379 63.5684 54.5694 64.7373C56.2758 66.2031 57.7226 68.9863 57.7226 73.3467C57.7226 79.5996 57.6669 87.3369 57.6669 88.8584C57.6669 90.0645 58.5202 91.5303 60.8758 91.1035C79.4242 84.9434 92 67.335 92 46.7578C92 21.0225 71.1331 1.48438 45.4065 1.48438ZM18.029 65.4795C17.7879 65.665 17.8435 66.0918 18.1589 66.4443C18.4556 66.7412 18.8823 66.8711 19.1234 66.6299C19.3645 66.4443 19.3089 66.0176 18.9935 65.665C18.6968 65.3682 18.2702 65.2383 18.029 65.4795ZM16.0258 63.9766C15.896 64.2178 16.0815 64.5147 16.4524 64.7002C16.7492 64.8857 17.1202 64.8301 17.25 64.5703C17.3798 64.3291 17.1944 64.0322 16.8234 63.8467C16.4524 63.7354 16.1556 63.791 16.0258 63.9766ZM22.0355 70.582C21.7387 70.8232 21.85 71.3799 22.2766 71.7324C22.7032 72.1592 23.2411 72.2148 23.4823 71.918C23.7234 71.6768 23.6121 71.1201 23.2411 70.7676C22.8331 70.3408 22.2766 70.2852 22.0355 70.582ZM19.921 67.8545C19.6242 68.04 19.6242 68.5225 19.921 68.9492C20.2177 69.376 20.7185 69.5615 20.9597 69.376C21.2565 69.1348 21.2565 68.6523 20.9597 68.2256C20.7 67.7988 20.2177 67.6133 19.921 67.8545Z" fill="#2BEAF3"/>
</g>
</svg>
