<svg width="83" height="86" viewBox="0 0 83 86" fill="none" xmlns="http://www.w3.org/2000/svg">
<path id="Linked in" d="M77.0714 0H5.91004C2.64933 0 0 2.77428 0 6.17994V79.5356C0 82.9412 2.64933 85.7155 5.91004 85.7155H77.0714C80.3321 85.7155 83 82.9412 83 79.5356V6.17994C83 2.77428 80.3321 0 77.0714 0ZM25.0853 73.4704H12.7835V32.5642H25.1038V73.4704H25.0853ZM18.9344 26.9774C14.9882 26.9774 11.8016 23.6674 11.8016 19.6113C11.8016 15.5551 14.9882 12.2451 18.9344 12.2451C22.8621 12.2451 26.0672 15.5551 26.0672 19.6113C26.0672 23.6866 22.8806 26.9774 18.9344 26.9774ZM71.1984 73.4704H58.8966V53.5722C58.8966 48.8272 58.804 42.7238 52.5049 42.7238C46.0946 42.7238 45.1127 47.8897 45.1127 53.2278V73.4704H32.8109V32.5642H44.6125V38.1511H44.7792C46.4281 34.9367 50.4484 31.5502 56.4326 31.5502C68.8826 31.5502 71.1984 40.0261 71.1984 51.0467V73.4704Z" fill="#2BEAF3"/>
</svg>
